<?xml version="1.0" standalone="no"?>
<!DOCTYPE svg PUBLIC "-//W3C//DTD SVG 20010904//EN"
 "http://www.w3.org/TR/2001/REC-SVG-20010904/DTD/svg10.dtd">
<svg version="1.0" xmlns="http://www.w3.org/2000/svg"
 width="555.000000pt" height="73.000000pt" viewBox="0 0 555.000000 73.000000"
 preserveAspectRatio="xMidYMid meet">

<g transform="translate(0.000000,73.000000) scale(0.100000,-0.100000)"
fill="#000000" stroke="none">
<path d="M883 601 c-112 -38 -173 -120 -173 -231 0 -40 6 -73 19 -98 24 -46
97 -117 134 -131 48 -19 153 -13 197 9 42 22 49 42 25 74 -13 18 -16 18 -55 2
-82 -33 -173 -10 -212 52 -16 27 -22 51 -22 99 0 56 3 66 30 94 16 17 41 37
56 45 38 20 123 18 155 -3 25 -17 26 -16 49 12 l24 30 -21 17 c-21 18 -110 48
-138 48 -9 -1 -39 -9 -68 -19z"/>
<path d="M1398 604 c-5 -4 -8 -112 -8 -241 l0 -233 40 0 40 0 0 55 0 55 69 0
70 0 28 -52 c25 -48 32 -53 66 -56 31 -3 37 0 37 17 0 11 -4 22 -9 26 -5 3
-17 25 -26 48 l-16 43 35 53 c45 66 49 133 13 196 -38 67 -91 89 -222 93 -60
2 -113 0 -117 -4z m221 -77 c40 -20 66 -64 65 -108 -2 -71 -68 -114 -164 -107
l-45 3 -3 99 c-1 55 0 106 2 113 7 17 112 17 145 0z"/>
<path d="M2046 595 c-8 -21 -8 -428 0 -449 4 -11 19 -16 45 -16 l39 0 -2 238
-3 237 -36 3 c-26 2 -38 -1 -43 -13z"/>
<path d="M2432 373 l3 -238 38 -3 37 -3 0 145 c0 110 3 146 13 146 6 -1 79
-66 161 -145 82 -80 153 -145 158 -145 5 0 7 107 6 238 l-3 237 -35 0 -35 0
-3 -142 c-1 -79 -6 -143 -11 -143 -4 0 -35 26 -68 58 -194 188 -242 232 -252
232 -8 0 -11 -69 -9 -237z"/>
<path d="M3311 588 c-15 -37 -75 -174 -135 -308 -31 -69 -56 -131 -56 -137 0
-16 44 -17 71 -3 10 6 19 17 19 25 0 28 37 36 141 29 87 -6 101 -10 111 -28
15 -28 28 -36 61 -36 35 0 35 14 -3 92 -32 70 -97 217 -140 318 -29 70 -54 87
-69 48z m68 -221 c17 -46 31 -88 31 -95 0 -8 -24 -12 -76 -12 l-76 0 5 28 c8
40 65 162 75 162 5 0 23 -37 41 -83z"/>
<path d="M3820 370 l0 -241 153 3 152 3 3 31 c4 39 -10 44 -135 44 l-93 0 0
200 0 200 -40 0 -40 0 0 -240z"/>
<path d="M4384 597 c-2 -7 -3 -114 -2 -237 l3 -225 40 0 40 0 3 238 2 237 -40
0 c-24 0 -43 -5 -46 -13z"/>
</g>
</svg>
